<?xml version="1.0" encoding="UTF-8"?>
<svg id="Layer_1" data-name="Layer 1" xmlns="http://www.w3.org/2000/svg" viewBox="0 0 4000 4000">
  <g style="opacity: .2;">
    <ellipse cx="744.66" cy="3424.4" rx="259.59" ry="78.13" style="fill: #292828; stroke-width: 0px;"/>
  </g>
  <g style="opacity: .2;">
    <ellipse cx="2062.06" cy="3655.77" rx="1287.08" ry="231.37" style="fill: #292828; stroke-width: 0px;"/>
  </g>
  <path d="M1034.11,2241.66c0,2.11-.3,4.23-.91,6.29v.1c-2.16,7.7-8.31,15.1-17.77,22.05-43.35,31.87-157.48,54.63-291.4,54.63s-248.01-22.76-291.35-54.63c-12.08-8.86-18.68-18.43-18.68-28.45,0-45.87,138.8-83.07,310.03-83.07s310.08,37.21,310.08,83.07Z" style="fill: #ccaf69; stroke-width: 0px;"/>
  <g style="opacity: .4;">
    <path d="M497.41,2259.33c8.56,21.95,32.32,33.55,54.62,41.17,37.03,12.66,75.86,20.08,114.95,21.96-61.52,19.19-127.81,1.87-189.88-15.45-28.31-7.9-60.65-19.44-70.06-47.29-8.09-23.93,5.73-51.03,26.44-65.48,20.71-14.46,46.7-18.82,71.85-21.12,25.15-2.3,50.87-2.99,74.66-11.45-22.45,8.2-45.55,16.79-63.06,33.05-17.52,16.26-28.2,42.34-19.51,64.6Z" style="fill: #fff; stroke-width: 0px;"/>
  </g>
  <path d="M724.02,2342.36c-135.36,0-253.82-22.78-301.79-58.05-17.15-12.58-25.86-26.93-25.86-42.65,0-69.18,169.85-100.69,327.65-100.69s327.71,31.51,327.71,100.69c0,3.43-.44,6.84-1.32,10.17-.07.34-.15.67-.24,1-3.21,11.4-11.39,22-24.31,31.49-47.96,35.26-166.44,58.04-301.83,58.04ZM724.02,2176.21c-189.2,0-292.41,43.24-292.41,65.45,0,3.65,4.29,8.97,11.47,14.24,41.03,30.16,156.54,51.22,280.94,51.22s239.96-21.06,280.97-51.21c8.05-5.9,10.41-10.21,11.1-12.16.06-.25.13-.5.2-.74.13-.45.2-.89.2-1.34,0-22.22-103.23-65.45-292.46-65.45ZM1033.2,2248.06h.06-.06Z" style="fill: #292828; stroke-width: 0px;"/>
  <path d="M1034,2300.72c-4.23,44.86-141.42,80.91-309.98,80.91s-310.03-37.21-310.03-83.07v-56.89c0,10.02,6.6,19.58,18.68,28.45,43.35,31.87,157.43,54.63,291.35,54.63s248.06-22.76,291.4-54.63c9.47-6.95,15.61-14.35,17.77-22.05l.76,47.83.05,4.83Z" style="fill: #ccaf69; stroke-width: 0px;"/>
  <g style="opacity: .3;">
    <path d="M1034,2300.72c-4.23,44.86-141.42,80.91-309.98,80.91s-310.03-37.21-310.03-83.07v-56.89c0,10.02,6.6,19.58,18.68,28.45,43.35,31.87,157.43,54.63,291.35,54.63s248.06-22.76,291.4-54.63c9.47-6.95,15.61-14.35,17.77-22.05l.76,47.83.05,4.83Z" style="fill: #292828; stroke-width: 0px;"/>
  </g>
  <g style="opacity: .3;">
    <path d="M913.66,2175.94h-46.91s-155.62,28.95-244.18,0v25.73s15.48,88.22,240.32,48.57c0,0-7.04,45.5-157.05,74.33l264.51-23.19,49.56-84.64s-52.15-42.05-106.24-40.81Z" style="fill: #292828; stroke-width: 0px;"/>
  </g>
  <path d="M724.02,2399.25c-157.81,0-327.65-31.51-327.65-100.7v-56.89c0-9.73,7.89-17.62,17.62-17.62s17.62,7.89,17.62,17.62c0,3.65,4.29,8.97,11.47,14.24,41.03,30.16,156.54,51.22,280.94,51.22s239.96-21.06,280.97-51.21c8.75-6.42,10.78-10.96,11.24-12.62,2.37-8.42,10.55-13.86,19.23-12.7,8.68,1.12,15.21,8.44,15.35,17.19l.81,52.77c0,.61-.02,1.22-.08,1.83-6.27,66.56-174.17,96.87-327.53,96.87ZM431.61,2290.52v8.03c0,22.22,103.21,65.46,292.41,65.46s288.33-41.48,292.35-64.29l-.12-9.06c-52.95,31.62-165.13,51.7-292.23,51.7s-239.55-20.13-292.41-51.84Z" style="fill: #292828; stroke-width: 0px;"/>
  <path d="M622.57,1929.81v271.87c57.9,30.68,158.99,39.61,244.18,0v-271.87c-82.52-16.9-163.9-16.67-244.18,0Z" style="fill: #f1b7ad; stroke-width: 0px;"/>
  <g style="opacity: .4;">
    <rect x="724" y="1917.61" width="20.66" height="324.06" style="fill: #fff; stroke-width: 0px;"/>
  </g>
  <g style="opacity: .3;">
    <polygon points="828.25 1923.19 828.25 2216.08 866.75 2201.68 866.75 1929.81 828.25 1923.19" style="fill: #292828; stroke-width: 0px;"/>
  </g>
  <g style="opacity: .3;">
    <polygon points="660.62 1923.19 660.62 2216.08 622.57 2201.68 622.57 1929.81 660.62 1923.19" style="fill: #292828; stroke-width: 0px;"/>
  </g>
  <path d="M743.12,2245.88c-50.7,0-96.82-11.68-128.8-28.63-5.77-3.05-9.37-9.04-9.37-15.57v-271.87c0-8.35,5.86-15.56,14.04-17.25,82.81-17.19,167.36-17.2,251.29,0,8.2,1.68,14.09,8.89,14.09,17.26v271.87c0,6.86-3.98,13.09-10.19,15.98-43.16,20.07-88.71,28.22-131.06,28.22ZM640.19,2190.67c51.82,23.22,135.6,29.63,208.93-.51v-245.8c-69.82-12.59-139.97-12.6-208.93-.03v246.35Z" style="fill: #292828; stroke-width: 0px;"/>
  <path d="M638.05,3470.26c-17.12,0-24.47-16.12-36.58-61.54-7.89-29.58-17.59-72.94-28.82-128.84-18.85-93.73-42.39-224.36-69.98-388.26-46.95-278.89-89.94-561.41-90.37-564.23-1.46-9.62,5.15-18.61,14.77-20.07,9.6-1.45,18.61,5.15,20.07,14.77,55.68,366.38,149.41,937.51,189.85,1084.39,31.33-143.17,88.98-681.34,121.57-1026.5.91-9.69,9.5-16.77,19.2-15.89,9.69.92,16.8,9.51,15.89,19.2-.25,2.68-25.64,270.97-55.21,535.81-17.38,155.65-32.79,279.72-45.8,368.75-7.76,53.13-14.77,94.34-20.82,122.48-9.09,42.26-15.79,59.93-33.76,59.93Z" style="fill: #292828; stroke-width: 0px;"/>
  <path d="M779.8,3413.2c-17.29,0-24.85-17.58-35.24-56.98-7.08-26.84-15.59-66.14-25.28-116.79-16.24-84.85-36.15-203.09-59.18-351.42-39.18-252.37-74.29-508.03-74.64-510.58-1.32-9.64,5.42-18.53,15.06-19.85,9.67-1.31,18.53,5.43,19.85,15.07,44.98,327.92,121.81,838.69,158.41,976.71,30.13-139.49,82.93-652.83,112.46-982.2.87-9.69,9.41-16.84,19.13-15.98,9.69.87,16.84,9.43,15.98,19.13-.23,2.57-23.35,259.8-50.69,513.73-16.07,149.26-30.43,268.23-42.69,353.6-7.32,50.98-13.98,90.52-19.8,117.53-8.65,40.13-15.52,58.03-33.37,58.03Z" style="fill: #292828; stroke-width: 0px;"/>
  <path d="M1403.32,1476.66c-67.13,540.33-492.19,735.06-603.2,1172.66-99.63,392.72,119.57,840.36,493.57,1007.94,195.75,87.71,416.58,102.49,631.62,101.66,415.92-1.62,864.69-72.19,1158.03-362.7,298.33-295.45,364.01-744.22,389.29-1160.23,16.73-275.19,22.4-554.38-39.04-823.34-45.18-197.77-126.43-387.2-236.07-558.74-179.67-281.11-451.83-521.52-782-588.92-330.17-67.39-721.58-37.95-955.77,362.19-141.19,241.24-22.09,573.08-56.43,849.49Z" style="fill: #f04e6c; stroke-width: 0px;"/>
  <g style="opacity: .4;">
    <path d="M1027.85,2427.77c-124.28,177.94-250.27,216.3-167.87,48.32,82.4-167.98,201.36-314.74,307.25-468.99,105.89-154.26,201.27-322.55,226.18-507.99,27.93-207.91-35.01-420.06-7.21-627.99,23.55-176.08,114.42-342.32,249.93-457.2,135.51-114.88,314.37-177.32,491.94-171.73-220.56,57.4-461.64,129.14-584.56,321.05-117.63,183.65-90.45,420.45-68.01,637.39,20.27,195.94,32.24,399.71-36.06,584.49-41.62,112.61-111.1,212.42-179.84,310.84-77.25,110.6-154.5,221.21-231.75,331.81Z" style="fill: #fff; stroke-width: 0px;"/>
  </g>
  <g style="opacity: .2;">
    <path d="M2778.05,1622.84c-38.73-73.14-80.08-149.27-149.73-196.16-94.04-63.31-220.44-59.64-331.04-30.95-185.24,48.06-351.91,160.7-462.55,312.57-37.01,50.81-68.51,106.44-115.74,148.53-62.96,56.11-147.29,82.55-222.46,122.09-75.17,39.55-147.99,103.25-153.08,186.03-3.06,49.76,19.21,98.42,17.14,148.23-3.05,73.41-57.69,134.93-115.99,181.84-58.3,46.91-124.56,87.3-166.88,148.23-42.32,60.93-52.09,152.1,3.1,202.42,45.85,41.8,116.31,40.46,179.23,39.16,62.92-1.3,135.15,4.3,173.02,53.04,28.86,37.15,30.37,91.83,66.62,122.3,37.11,31.19,96.26,22.42,136.77-4.51,40.51-26.93,68.27-67.86,100.29-103.98,32.02-36.11,73.1-69.78,122.11-72.87,117.51-7.41,181.48,154.51,298.67,165.66,52.81,5.03,103.32-23.1,142.68-57.61,39.37-34.51,71.84-76.23,113.53-108.07,63.11-48.19,142.77-70.43,220.85-88.71,78.08-18.28,158.26-34.2,228.15-72.61,69.88-38.41,129.19-104.6,134.6-182.32,8.52-122.35-112.09-218.39-135.11-338.97-16.5-86.42,19.11-173.99,19.94-261.88,1.05-110.29-52.18-213.38-104.13-311.49Z" style="fill: #292828; stroke-width: 0px;"/>
  </g>
  <path d="M1907.85,3779.08c-196.53,0-421.91-13.61-622.4-103.45-185.17-82.97-339.38-235.35-434.24-429.07-94.89-193.78-119.97-407.65-70.61-602.2,50.47-198.92,161.68-344.93,279.43-499.51,140.98-185.07,286.75-376.45,323.31-670.67l19.98,2.48-19.98-2.48c12.48-100.45,4.06-211.42-4.08-318.74-14.22-187.41-28.92-381.19,63.12-538.45,109.37-186.87,262-309.87,453.65-365.58,151.57-44.06,327.71-46.13,523.52-6.16,159.93,32.65,313.3,106.06,455.86,218.22,126.94,99.87,244.19,231.12,339.08,379.58,113.21,177.12,193.53,367.25,238.73,565.11,62.41,273.16,55.87,559.89,39.51,829.04-25.01,411.41-91.52,872.54-395.22,1173.31-248.27,245.88-631.67,366.43-1172.13,368.54-5.82.02-11.66.03-17.53.03ZM2151.33,256.53c-299.79,0-525.93,127.46-674.2,380.8-85.69,146.4-71.47,333.82-57.72,515.06,8.29,109.29,16.87,222.31,3.89,326.75-37.89,305.02-187.02,500.79-331.24,690.12-115.19,151.22-223.99,294.05-272.43,485.01-96.53,380.5,119.82,822.19,482.28,984.61,199.49,89.38,427.15,100.74,623.3,99.89,529.36-2.06,903.55-118.8,1143.94-356.88,294.07-291.24,358.82-743.32,383.36-1147.13,16.18-266.16,22.7-549.43-38.58-817.63-44.17-193.32-122.7-379.17-233.4-552.38-116.13-181.7-370.47-498.67-769.06-580.03-92.07-18.79-178.84-28.18-260.16-28.18Z" style="fill: #292828; stroke-width: 0px;"/>
  <g style="opacity: .2;">
    <path d="M2506.06,288.16s870.16,598.21,788.16,1038.45c-60.41,324.32,22.27,339.09,22.27,801.26s62.41,875.01-318.7,1096.54c-381.11,221.52-389.27,177.77-813.79,233.15-424.52,55.38-628.05,232.92-977.02-4.91-365.76-249.28-410.83-752.64-355.87-948.19,0,0-210.26,420.39,57.7,815.61,267.96,395.22,803.12,526.05,1359.96,419.1,556.84-106.95,880.8-293.24,1015.86-625.52,135.07-332.29,243.03-962.92,197.86-1289.52-45.17-326.6-81.67-720.56-221.39-860.27,0,0-211.15-467.82-755.04-675.7Z" style="fill: #292828; stroke-width: 0px;"/>
  </g>
  <g>
    <path d="M2918.74,1847.43c-26.62,10.5-52.65,22.34-78.25,34.84-25.56,12.59-50.68,25.92-75,40.37-24.22,14.58-47.84,29.95-70,46.79-21.97,17.01-42.61,35.27-60.29,55.14l-.23.25c-8.34,9.37-22.7,10.21-32.07,1.87-9.37-8.34-10.21-22.7-1.87-32.07.64-.72,1.42-1.48,2.13-2.1,23.26-20.08,48.14-36.64,73.6-51.45,25.59-14.57,51.92-27.09,78.49-38.64,26.65-11.39,53.7-21.44,80.95-30.64,27.28-9.11,54.76-17.45,82.55-24.36Z" style="fill: #292828; stroke-width: 0px;"/>
    <path d="M1128.93,2679.05c31.61-5.19,63.65-8.13,95.8-9.73,32.17-1.52,64.51-1.36,96.92.5,32.43,1.75,64.83,6.2,97.15,12.41,32.32,6.42,64.19,16.23,95.59,28.6,11.67,4.6,17.41,17.79,12.81,29.46-4.6,11.67-17.79,17.41-29.46,12.81-.82-.32-1.62-.69-2.38-1.1l-.72-.39c-26.69-14.29-54.87-26.91-84.49-36.51-29.63-9.4-60.08-17.38-91.19-22.77-31.08-5.51-62.6-9.42-94.35-11.67-31.75-2.16-63.71-3.03-95.68-1.59Z" style="fill: #292828; stroke-width: 0px;"/>
    <path d="M2903.64,2383.62c-35.53-2.78-71.13-.8-106.09,3.97-8.72,1.42-17.46,2.52-26.11,4.18l-25.84,5.28-25.47,6.64c-8.5,2.06-16.72,5.23-25.06,7.77l-12.44,4.03-12.17,4.8c-8.06,3.3-16.27,6.17-24.17,9.79-15.67,7.54-31.53,14.45-46.33,23.46-30.44,16.35-57.9,37.34-84.37,58.79l-1.15.94c-9.75,7.9-24.06,6.4-31.96-3.35-7.9-9.75-6.4-24.06,3.35-31.96.68-.56,1.41-1.07,2.13-1.53l23.5-14.91c7.84-4.92,15.49-10.09,23.83-14.15l24.48-12.9c4.01-2.26,8.24-4.09,12.48-5.89l12.66-5.49c16.64-7.81,34.17-13.39,51.37-19.49,8.66-2.9,17.57-5.02,26.32-7.54l13.16-3.63,13.36-2.81c8.93-1.73,17.7-4.06,26.7-5.27l26.85-4.03,26.97-2.59c8.98-.75,18.01-.93,26.98-1.42,35.94-1.07,71.95.78,107.03,7.32Z" style="fill: #292828; stroke-width: 0px;"/>
    <path d="M2701.06,2829.11c-29.51-16.76-60.92-30.54-92.8-42.03-31.93-11.51-64.7-20.32-97.71-26.64-16.45-3.51-33.16-5.32-49.71-7.54-8.32-.81-16.67-1.21-24.97-1.84l-12.45-.84-12.47-.02c-8.3.03-16.59-.14-24.85.05l-24.72,1.76c-4.11.34-8.22.47-12.3.96l-12.2,1.85-24.31,3.64-1.73.26c-12.4,1.86-23.96-6.69-25.82-19.09-1.86-12.4,6.69-23.96,19.09-25.82.7-.1,1.44-.18,2.14-.22l26.87-1.46,13.39-.71c4.46-.1,8.94.15,13.4.22l26.71.67c8.87.65,17.7,1.66,26.52,2.48l13.21,1.31,13.09,2.14c8.71,1.5,17.44,2.77,26.07,4.47,17.17,3.97,34.36,7.56,51.08,12.83,33.6,9.84,66.31,22.13,97.71,36.97,31.4,14.86,61.65,31.73,90.06,51.69,1.33.94,1.65,2.77.72,4.11-.88,1.25-2.55,1.61-3.85.87l-.16-.09Z" style="fill: #292828; stroke-width: 0px;"/>
    <path d="M2168.25,2852.88c-2.56,3.82-5.58,8.88-8.24,13.59-2.74,4.8-5.36,9.73-7.9,14.72-5.13,9.96-9.77,20.22-14.18,30.62-8.68,20.85-15.72,42.48-21.01,64.63-5.54,22.14-8.35,44.91-9.31,67.91l-.27,17.32c.26,5.76.75,11.51,1.11,17.32l.6,8.72,1.38,8.61,2.79,17.33-5.55-16.71-2.78-8.42-2.02-8.61c-1.32-5.76-2.76-11.53-3.98-17.36l-2.6-17.66c-2.85-23.64-3.78-47.82-1.78-71.82,1.76-24.03,5.46-48.03,11.07-71.68,2.88-11.8,6.06-23.57,9.84-35.22,1.86-5.83,3.84-11.65,6-17.45,2.2-5.92,4.29-11.37,7.23-17.86v-.03c5.19-11.44,18.66-16.52,30.1-11.34,11.44,5.18,16.52,18.65,11.34,30.09-.51,1.13-1.18,2.3-1.84,3.3Z" style="fill: #292828; stroke-width: 0px;"/>
    <path d="M1721.39,2876.23c-.57.04-1.92.36-3.02.59-1.12.21-2.37.56-3.57.87-2.42.58-4.88,1.29-7.36,2.05-4.96,1.38-9.91,3.22-14.88,4.93-9.87,3.75-19.77,7.83-29.36,12.66-19.24,9.54-38,20.74-55.46,33.97-4.54,3.11-8.57,6.81-12.91,10.2-4.29,3.45-8.61,6.9-12.57,10.74l-12.21,11.26c-3.92,3.91-7.66,8-11.53,12.01-7.95,7.86-14.66,16.77-21.94,25.33-7.04,8.74-13.24,18.1-19.97,27.23,5.07-10.04,9.7-20.45,15.25-30.35,5.8-9.74,11.1-19.94,17.78-29.23,3.22-4.73,6.36-9.55,9.69-14.23l10.56-13.66c3.43-4.66,7.28-8.97,11.11-13.3,3.89-4.28,7.51-8.88,11.67-12.92,15.96-16.94,33.82-32.25,52.97-46.15,9.55-7,19.64-13.35,30.01-19.42,5.29-2.9,10.51-5.89,16.07-8.53,2.73-1.37,5.51-2.7,8.41-3.95,1.45-.64,2.83-1.29,4.4-1.9,1.57-.62,2.89-1.21,5.03-1.93l3.06-1.03c12.04-4.05,25.09,2.43,29.14,14.47,4.05,12.04-2.43,25.09-14.47,29.14-1.91.64-3.96,1.02-5.88,1.15Z" style="fill: #292828; stroke-width: 0px;"/>
  </g>
  <path d="M2312.07,430.19s-156.33-201.58-509.89-13.94c-353.55,187.64-326.22,416.13-326.22,503.27s28.55,308.66,28.55,389.22,67.46,224.03,67.46,224.03c0,0,15.1,114.06-55.38,162.76,0,0,163.93,251.73,777.74,144.27,428.06-74.94,508.61-244.1,508.61-244.1,0,0-81.59-137.9-58.42-269.07,23.17-131.17,73.52-246.97,15.62-478.56-57.9-231.59-188.8-498.43-448.08-417.87Z" style="fill: #282840; stroke-width: 0px;"/>
  <g>
    <path d="M2781.45,1178.99c6.39,68.97-13.54,114.54-42.79,144.64-57.85,59.56-152.2,58.7-152.2,58.7-59.76,132.01-166.85,213.01-342.46,268.59h-.05c-4.23,1.36-8.46,2.67-12.79,3.93-42.79,12.84-89.57,23.36-140.62,31.47-50.35,8.01-98.38,10.52-143.64,8.56-35.59-1.56-69.53-5.89-101.55-12.59-128.89-26.88-227.41-91.83-282.09-165.74v-.05c-7.1-9.57-13.39-19.28-18.98-29.05-19.94-34.99-32.27-75.91-39.77-137.59-7.5-61.83-10.17-129.34-10.72-187.19-.1-11.43-.1-22.45-.05-32.93.15-31.72.86-58.6,1.51-77.28-.05,0-.15,0-.2.05.1-1.76.15-3.47.2-5.09,606.67-113.28,791.65-436,791.65-436,0,0,39.27,376.49,153.56,455.63,147.26,101.95,198.87-15.1,198.87-15.1,0,0,96.36-4.28,130.9,79.45,5.59,13.44,9.52,29.2,11.23,47.58Z" style="fill: #ffd5ad; stroke-width: 0px;"/>
    <path d="M2581.47,2113.01c.45,3.57,18.78,156.38-96.77,248.66-43.05,34.49-104.67,60.52-192.78,67.26l-3.93.35-15.81-187.49c71.69-19.99,85.19-46.97,85.19-46.97v-50.8c96.46,14.1,178.73-11.58,224.09-31.01Z" style="fill: #ffd5ad; stroke-width: 0px;"/>
    <path d="M2412.76,2574.94c18.43,49.29.76,101.9.05,104.07l-.05.05c-29.55,20.69-63.99,34.59-97.47,43.7-43.85,12.03-86.09,15.81-113.98,15.81,0,0-58.1,39.42-152.95,72.95-86.04,30.46-202.34,56.04-332.89,42.84,0,0-128.89,11.93-221.78-141.62,63.94,31.32,139.21,50.7,207.78,63.59,87-24.87,145.45-48.43,202.79-123.35,9.06-11.88,19.23-23.46,30.01-34.59,62.23-64.49,143.69-113.93,143.69-113.93h216.39l-4.03-47.83c2.77,1.06,91.63,35.75,122.44,118.31Z" style="fill: #ffd5ad; stroke-width: 0px;"/>
    <path d="M2315.29,2722.75s-1.31,4.93-5.89,13.29c-9.82,17.92-34.89,51.5-95.1,85.84-88.31,50.35-165.94-10.37-165.94-10.37,94.85-33.53,152.95-72.95,152.95-72.95,27.89,0,70.13-3.78,113.98-15.81Z" style="fill: #ffd5ad; stroke-width: 0px;"/>
    <path d="M2231.16,1654.86v.05s-27.34,106.94-140.62,129.59c-113.28,22.66-143.64-89.62-143.64-89.62,45.26,1.96,93.29-.55,143.64-8.56,51.05-8.11,97.82-18.63,140.62-31.47Z" style="fill: #ffd5ad; stroke-width: 0px;"/>
    <path d="M1845.36,2504.45s29.81,52.91,44.36,100.69c-44.51-15-115.8-45.41-179.99-100.69h135.63Z" style="fill: #ffd5ad; stroke-width: 0px;"/>
    <path d="M1933.57,2617.73s-17.07-3.52-43.85-12.59c-44.51-15-115.8-45.41-179.99-100.69-8.31-7.1-16.46-14.65-24.47-22.66-94.4-94.4-310.23-79.04-339.03,22.66-3.88,13.59-4.38,28.7-.81,45.31,16.16,75.42,74.71,127.02,148.27,162.97,63.94,31.32,139.21,50.7,207.78,63.59,87-24.87,145.45-48.43,202.8-123.35,9.06-11.88,19.23-23.46,30.01-34.59l-.7-.65Z" style="fill: #ffd5ad; stroke-width: 0px;"/>
    <path d="M1493.74,1129.76c-.05,10.47-.05,21.5.05,32.93.4,58.91,3.02,128.58,10.72,192.22-76.38-6.24-136.44-71.79-136.44-151.74s55.18-140.01,126.97-150.64c-.6,19.38-1.26,46.17-1.31,77.23Z" style="fill: #ffd5ad; stroke-width: 0px;"/>
  </g>
  <path d="M2484.71,2361.67s43.85,137.75-9.01,245.99c-14.6,29.86-36.85,53.22-62.88,71.34.7-2.16,18.38-54.78-.05-104.07-30.81-82.57-119.67-117.26-122.44-118.31l-2.32-27.34,3.93-.35c88.11-6.75,149.73-32.78,192.78-67.26Z" style="fill: #8cbbd6; stroke-width: 0px;"/>
  <path d="M2272.9,1082.78c55.63,0,100.69,60.87,100.69,135.93s-45.06,135.94-100.69,135.94-100.69-60.82-100.69-135.94,45.06-135.93,100.69-135.93Z" style="fill: #292828; stroke-width: 0px;"/>
  <path d="M2243.95,1150.29c16.01,0,28.95,19.38,28.95,43.35s-12.94,43.3-28.95,43.3-28.95-19.38-28.95-43.3,12.99-43.35,28.95-43.35Z" style="fill: #fff; stroke-width: 0px;"/>
  <path d="M1845.36,2504.45h232.6s-81.46,49.44-143.69,113.93l-.7-.65s-17.07-3.52-43.85-12.59c-14.55-47.78-44.36-100.69-44.36-100.69Z" style="fill: #8cbbd6; stroke-width: 0px;"/>
  <path d="M2548.7,1834.85c-9.26-19.69-20.74-37.31-33.68-53.07-93.9-114.13-266.89-130.45-271.01-130.85h-.05c-4.23,1.36-8.46,2.67-12.79,3.93v.05s-27.34,106.94-140.62,129.59c-113.28,22.66-143.64-89.62-143.64-89.62-35.59-1.56-69.53-5.89-101.55-12.59,0,0-82.37,38.57-122.04,141.83,2.28.72,4.62,1.43,6.95,2.14-17.15,27.11-37.95,69.48-57.72,134.45-45.19,148.52-28.92,310.23-28.92,310.23,0,0,437.66,58.1,628.57-29.15,71.69-19.99,85.19-46.97,85.19-46.97v-50.8c96.46,14.1,178.73-11.58,224.09-31.01v-.05c24.02-10.27,37.71-18.83,37.71-18.83,0,0-7.55-125.87-70.48-259.28Z" style="fill: #ffe13f; stroke-width: 0px;"/>
  <path d="M1556.16,1139.17c2.22,7.29,6.98,13.21,12.32,17.58,5.42,4.39,11.77,7.12,18.28,8.83,6.43,1.86,13.36,2.27,20.07,2.49,3.5-.16,6.87-.2,10.28-.45l10.29-1.22.63-.08c9.88-1.17,18.83,5.89,20,15.77,1.17,9.87-5.89,18.83-15.76,20-2.34.28-4.69.07-6.83-.5l-12.28-3.33c-4.07-1.29-8.11-2.85-12.06-4.27-7.92-3.45-15.65-7.2-22.55-12.56-6.9-5.15-13.05-11.49-17.16-18.89-4.06-7.37-6.34-15.54-5.67-23.34.01-.12.12-.21.24-.2.09,0,.18.1.2.19Z" style="fill: #292828; stroke-width: 0px;"/>
  <path d="M2388.34,1078.48c2.55,7.41,2.33,15.89.19,24.02-2.18,8.18-6.6,15.83-12.03,22.51-5.38,6.89-11.97,12.41-18.8,17.69-3.48,2.34-7.02,4.84-10.65,7.08l-11.1,6.22c-8.68,4.87-19.65,1.78-24.52-6.9-4.87-8.68-1.78-19.65,6.9-24.52,2.05-1.15,4.24-1.86,6.44-2.15l.69-.09,10.28-1.33c3.37-.59,6.65-1.38,10.08-2.07,6.46-1.84,13.08-3.94,18.86-7.31,5.89-3.24,11.39-7.44,15.57-13.02,4.11-5.54,7.28-12.44,7.66-20.05-.01-.12.08-.23.2-.24.09,0,.19.07.23.15Z" style="fill: #292828; stroke-width: 0px;"/>
  <path d="M1701.47,1082.78c55.63,0,100.69,60.87,100.69,135.93s-45.06,135.94-100.69,135.94-100.69-60.82-100.69-135.94,45.11-135.93,100.69-135.93Z" style="fill: #292828; stroke-width: 0px;"/>
  <path d="M1672.57,1150.29c15.96,0,28.9,19.38,28.9,43.35s-12.94,43.3-28.9,43.3-28.95-19.38-28.95-43.3,12.94-43.35,28.95-43.35Z" style="fill: #fff; stroke-width: 0px;"/>
  <polygon points="2294.34 2504.45 1262.38 2504.45 1206.97 1847.43 2238.92 1847.43 2294.34 2504.45" style="fill: #d2ccca; stroke-width: 0px;"/>
  <path d="M2437.3,2201.3c-13.55-1.7-27.12-1.6-40.22-.2-6.55.68-12.98,1.74-19.22,3.21-6.25,1.34-12.26,3.35-18.04,5.42l-.04.02c-7.99,2.86-16.78-1.3-19.64-9.29-2.86-7.99,1.3-16.78,9.29-19.64,1.8-.64,3.69-.92,5.5-.89,7.56.16,14.98.54,22.22,1.65,7.24.98,14.31,2.44,21.2,4.29,13.76,3.64,26.92,8.61,39.07,15.08.09.05.13.16.08.26-.04.07-.13.11-.2.1Z" style="fill: #292828; stroke-width: 0px;"/>
  <path d="M2237.39,2669.76c-.76,13.4-2.81,26.88-6.18,40.46-3.54,13.54-8.35,27.28-17.44,40.81l-.8,1.2c-5.63,8.38-16.98,10.6-25.36,4.98-8.38-5.63-10.6-16.98-4.98-25.35,1.63-2.43,3.83-4.39,6.21-5.74,9.25-5.2,18.44-13.91,26.57-23.72,8.11-9.9,15.58-20.89,21.97-32.63Z" style="fill: #292828; stroke-width: 0px;"/>
  <g style="opacity: .5;">
    <path d="M841.65,1284.07c-34.05,15.93-45.31,60.96-36.37,97.47,8.94,36.51,32.76,67.19,53.21,98.73,20.44,31.54,38.55,67.81,33.73,105.09-4.53,35.06-28.46,64.28-53.23,89.5-24.77,25.22-52.04,49.55-66.47,81.82-14.43,32.27-11.67,75.67,16.85,96.55-35.37,11.95-70.62-27.67-70.17-65,.45-37.33,23.41-70.05,44.04-101.17,20.62-31.12,40.56-67,33.99-103.75-5.49-30.7-28.33-54.96-42.51-82.74-20.03-39.23-22.19-87.16-5.77-128.03,16.41-40.87,51.12-74,92.72-88.48Z" style="fill: #fff; stroke-width: 0px;"/>
  </g>
  <g style="opacity: .5;">
    <path d="M666.3,1565.5c22.97-3.79,44.91,15.58,51.24,37.98,6.34,22.4,7.45,50.31-7.36,68.28-23.9,29-18.38,43.17-21.74,66.21-22.13.87-37.23-24.55-36.08-46.67,1.16-22.12,12.81-42.1,20.08-63.02,7.26-20.92,9.18-46.79-6.15-62.77Z" style="fill: #fff; stroke-width: 0px;"/>
  </g>
  <path d="M1749.13,2109.75l4.05,8.22c3.06,6.21,8.99,10.51,15.84,11.5l9.07,1.32c17.25,2.51,24.14,23.7,11.66,35.87l-6.56,6.4c-4.96,4.83-7.22,11.79-6.05,18.62l1.55,9.03c2.95,17.18-15.09,30.28-30.51,22.17l-8.11-4.26c-6.13-3.22-13.45-3.22-19.57,0l-8.11,4.26c-15.43,8.11-33.46-4.99-30.51-22.17l1.55-9.03c1.17-6.82-1.09-13.78-6.05-18.62l-6.56-6.4c-12.48-12.17-5.59-33.37,11.66-35.87l9.07-1.32c6.85-1,12.77-5.3,15.83-11.5l4.06-8.22c7.71-15.63,30-15.63,37.72,0Z" style="fill: #fff; stroke-width: 0px;"/>
  <g style="opacity: .3;">
    <path d="M2294.35,485.57s148.45-16.84,220.67,55.38c131.38,131.38,217.5,398.94,201.95,537.58l53.26,52.89s45.15-243.87-53.6-422.26-121.02-282.07-279.26-290.88c-112.71-6.27-122.78,9.4-122.78,9.4,0,0-80.55-143.34-342.35-71.68-261.8,71.67-396.73,176.82-467.72,354.58,0,0,196.95-257.74,535.68-300.53,240.81-30.42,254.15,75.52,254.15,75.52Z" style="fill: #372639; stroke-width: 0px;"/>
  </g>
  <g style="opacity: .3;">
    <path d="M2658.98,1371.48s-13.93,241.86-201.69,357.18c0,0-123.01-98.63-226.13-73.75,0,0,236.98-60.5,355.29-272.57l72.52-10.86Z" style="fill: #372639; stroke-width: 0px;"/>
  </g>
  <g style="opacity: .3;">
    <path d="M1571.98,1532.77s37.15,193.73,158.29,284.41c0,0,20.94-88.56,115.09-134.88,0,0-200.38-58.91-273.38-149.53Z" style="fill: #372639; stroke-width: 0px;"/>
  </g>
  <g style="opacity: .3;">
    <path d="M2060.55,1690.45s62.99,18.01,144.67,18.01l11.21-19.25s127.84,7.19,251.65,113.7c62.74,53.97,107.69,312.49,107.69,312.49l52.21-30.08s-25.17-252.23-135.46-327.7c-110.29-75.48-261.37-102.71-261.37-102.71l-170.61,35.54Z" style="fill: #292828; stroke-width: 0px;"/>
  </g>
  <g style="opacity: .3;">
    <path d="M2534.42,2134.24s-10.89,230.07-246.41,245.65l8.02,48.7c60.32.26,206.68-56.32,247.34-134.77,68.27-131.73,32.42-178.43,32.42-178.43l-41.37,18.84Z" style="fill: #292828; stroke-width: 0px;"/>
  </g>
  <g style="opacity: .3;">
    <path d="M2515.02,1108.85s124.1,308.68-220.67,523.63c0,0,214.07-75.83,292.11-250.14,0,0,198.81-13.29,193.81-145.41-5.01-132.11-30.18-174.89-140.94-184.97,0,0-29.6,70.97-124.3,56.88Z" style="fill: #292828; stroke-width: 0px;"/>
  </g>
  <g style="opacity: .3;">
    <path d="M2048.36,2811.52l152.95-72.95s64.72,21.16,118.31-7.37c0,0-98.18,110.68-171.18,110.68s-100.09-30.36-100.09-30.36Z" style="fill: #292828; stroke-width: 0px;"/>
  </g>
  <g style="opacity: .3;">
    <path d="M1709.73,2504.45s160,112.62,223.84,113.28c0,0,81.46-88.11,144.39-113.28,62.93-25.17-17.41,0-17.41,0h-350.82Z" style="fill: #292828; stroke-width: 0px;"/>
  </g>
  <g style="opacity: .3;">
    <path d="M1345.42,2549.76s309.63,3.37,445.56,18.05l-92.59-73.43h-362.23l9.26,55.38Z" style="fill: #292828; stroke-width: 0px;"/>
  </g>
  <g style="opacity: .3;">
    <path d="M2485.5,2364.31s-77.85,57.86-141.23,57.86c0,0-.02,22.8-7.32,59.16l-46.68-24.76,1.66,47.88-256.77-5.03-81.94,103.21,71.87-60.42s280.48-77.52,194.25,180.54c-.3.89-17.4,15.13-18.04,15.81,0,0,269.14,22.09,300.47-234.11,13.24-108.24-16.28-140.14-16.28-140.14Z" style="fill: #292828; stroke-width: 0px;"/>
  </g>
  <g style="opacity: .3;">
    <path d="M1392.76,2640.39s244.98,108.19,322.71,82.37c77.73-25.83,175.32-53.17,175.32-53.17,0,0-90.04,106.74-189.32,106.74s-308.71-135.94-308.71-135.94Z" style="fill: #292828; stroke-width: 0px;"/>
  </g>
  <g style="opacity: .3;">
    <path d="M1701.47,2776.32s19.08,75.69,177.64,75.69c0,0-153.58,31.18-263.08-20.99-109.5-52.18-122.34-118.28-122.34-118.28l207.78,63.59Z" style="fill: #292828; stroke-width: 0px;"/>
  </g>
  <g style="opacity: .3;">
    <path d="M1495.25,1047.44l9.26,307.46s-136.44-12.24-136.44-136.19,99.27-165.86,127.17-171.27Z" style="fill: #292828; stroke-width: 0px;"/>
  </g>
  <g style="opacity: .3;">
    <path d="M1953.23,1711.64s-113.58-3.84-222.96,105.54c0,0,15.41-103.66,93.44-134.88,0,0,119.08,29.34,129.52,29.34Z" style="fill: #292828; stroke-width: 0px;"/>
  </g>
  <g style="opacity: .3;">
    <path d="M2330.71,2127.87s.47,54.37-61.94,73.25l3.44,40.68,85.19-40.68v-57.09l-26.68-16.15Z" style="fill: #292828; stroke-width: 0px;"/>
  </g>
  <g style="opacity: .3;">
    <path d="M2201.31,1853.84s6.24,400.03-379.66,639.43l470.28,11.19-53.01-657.02-37.61,6.4Z" style="fill: #292828; stroke-width: 0px;"/>
  </g>
  <g style="opacity: .3;">
    <path d="M2031.08,848.11s123.63-37.06,198.93-89.57c15.12-10.54,36.06-3.6,42.17,13.79,12.87,36.61,36.47,91.15,72.09,126.77,0,0-85.57-199.53-56.95-283.81,0,0-159.53,177.92-256.24,232.82Z" style="fill: #292828; stroke-width: 0px;"/>
  </g>
  <g style="opacity: .4;">
    <path d="M1277.72,1937.86c15.44,0,27.96-12.52,27.96-27.96,0-7.38-2.88-14.08-7.56-19.08,173.62-6.89,889.73-35.35,903.19-36.99l-994.34-6.4,55.41,657.02h54.34l-52.37-569.99c3.97,2.17,8.53,3.4,13.37,3.4Z" style="fill: #fff; stroke-width: 0px;"/>
  </g>
  <g style="opacity: .4;">
    <path d="M1555.94,1047.44s-35.82,299.24,35.24,410.18c104.41,163,326.83,250.21,782.42,137.62,0,0-404.46,200.64-676.04,33.84,0,0-178.2-46.95-193.42-286.86-15.23-239.91-8.88-294.79-8.88-294.79h60.68Z" style="fill: #fff; stroke-width: 0px;"/>
  </g>
  <g style="opacity: .4;">
    <path d="M2314.79,520.81s65.25,640.77,324.53,531.16c0,0-105.63,125.86-226.51-27.7-120.88-153.56-122.54-412.83-122.54-412.83,0,0-203.08,274.24-549.61,372.62l-245.41,63.38s470.69-146.52,819.54-526.63Z" style="fill: #fff; stroke-width: 0px;"/>
  </g>
  <g style="opacity: .4;">
    <path d="M2330.71,1979.84s13.57,99.19,66.67,124.36c58.61,27.79,151.02,23.67,151.02,23.67l-209.89,7.8-7.8-155.83Z" style="fill: #fff; stroke-width: 0px;"/>
  </g>
  <g style="opacity: .4;">
    <ellipse cx="2077.96" cy="2597.61" rx="40.58" ry="34.87" style="fill: #fff; stroke-width: 0px;"/>
  </g>
  <g style="opacity: .4;">
    <ellipse cx="1411.18" cy="2597.61" rx="18.43" ry="15.83" style="fill: #fff; stroke-width: 0px;"/>
  </g>
  <path d="M2770.23,1149.04c-1.74,0-3.51-.26-5.26-.81-9.27-2.89-14.45-12.75-11.58-22.02h0c.44-1.43,42.55-145.32-47.57-395.52-51.89-144.04-123.69-237.37-213.4-277.39-91.45-40.8-170.35-9.64-171.14-9.32-8.53,3.46-18.35-.2-22.45-8.45-.85-1.64-23.05-43.31-91.17-66.22-64.64-21.74-183.82-29.51-384.51,56.93-184.35,79.4-292.78,206.7-322.27,378.36-17.32,100.82-.95,188.43,7.2,222.46,299.41-58.51,490.1-169.26,597.89-252.6,118.71-91.79,165.22-171.01,165.67-171.8,3.82-6.61,11.45-10.01,18.94-8.43,7.47,1.59,13.07,7.8,13.86,15.39,10.71,102.49,57.81,381.87,146.06,442.98,47.32,32.77,88.07,44.75,121.08,35.65,36.06-9.94,51.52-43.13,51.67-43.47,4.01-8.82,14.42-12.79,23.26-8.83,8.85,3.96,12.85,14.28,8.94,23.14-.86,1.96-21.8,48.27-73.87,62.96-43.7,12.33-94.55-1.29-151.15-40.48-96.01-66.49-140.62-318.02-155.32-422.68-26.11,33.43-72.57,85.16-145.72,142-112.92,87.73-314.04,204.72-630.9,263.89-8.76,1.63-17.35-3.52-20.04-12.01-1.47-4.65-35.75-115.46-12.57-252.67,21.48-127.11,98.48-300.77,343.31-406.22,355.28-153.01,481.61-30.3,512.87,12.75,29.62-8.53,101.75-22.21,183.9,14.14,99.19,43.88,177.59,144.14,233.01,297.99,94.56,262.54,50.01,411.7,48.07,417.92-2.35,7.54-9.31,12.37-16.81,12.37Z" style="fill: #292828; stroke-width: 0px;"/>
  <path d="M1976.17,1713.14c-10.07,0-20.08-.21-30.03-.65-35.68-1.56-70.8-5.92-104.39-12.94-124.01-25.87-230.68-88.74-292.65-172.51-.21-.28-.41-.56-.6-.86-7.03-9.54-13.59-19.62-19.51-29.98-21.78-38.22-34.33-81.34-41.97-144.21-6.51-53.68-10.16-117.32-10.85-189.15.05-32.42.67-91.88,1.26-110.88.1-1.87.14-3.24.18-4.55l17.63.02,17.61.57c-.07,2.13-.12,3.8-.22,5.52-.56,18.27-1.18,77.19-1.23,109.18.67,70.33,4.24,132.65,10.6,185.04,7.05,57.94,18.29,97.11,37.59,130.99,5.39,9.43,11.39,18.61,17.82,27.27.2.28.4.56.6.85,56.98,76.52,155.66,134.14,270.94,158.19,31.74,6.64,64.95,10.75,98.72,12.23,45.63,1.97,92.77-.83,140.1-8.36,49.6-7.88,96.13-18.29,138.32-30.94,4.32-1.26,8.39-2.52,12.47-3.82.25-.08.5-.16.76-.23,172.73-54.79,274.85-134.64,331.08-258.85,2.88-6.35,9.43-10.4,16.21-10.35.86.07,87.69-.13,139.4-53.36,30.29-31.18,43.04-75.17,37.89-130.74-1.47-15.82-4.82-30.1-9.95-42.44-29.29-71.01-110.44-68.75-113.9-68.6-9.6.37-17.91-7.18-18.31-16.88-.4-9.7,7.1-17.9,16.8-18.33,4.43-.19,109.16-3.75,147.97,90.33,6.47,15.57,10.68,33.3,12.48,52.66,6.15,66.31-9.9,119.65-47.7,158.56-50.6,52.09-124.92,61.84-153.42,63.64-61.62,128.59-169.64,211.54-348.55,268.17-.21.06-.42.13-.63.19-4.17,1.33-8.34,2.62-12.61,3.86-43.53,13.06-91.62,23.82-142.77,31.95-39.36,6.26-78.64,9.41-117.14,9.41Z" style="fill: #292828; stroke-width: 0px;"/>
  <path d="M1945.1,1475.25c-92.46,0-134.23-60.87-136.04-63.58-5.41-8.09-3.23-19.04,4.86-24.44,8.06-5.39,18.96-3.24,24.39,4.79,1.6,2.32,37.24,52.45,117.76,47.66,94.14-5.67,136.15-60.96,137.89-63.31,5.78-7.79,16.79-9.49,24.61-3.75,7.82,5.73,9.56,16.67,3.87,24.52-2.1,2.9-52.75,71.01-164.24,77.73-4.47.27-8.84.4-13.09.4Z" style="fill: #292828; stroke-width: 0px;"/>
  <path d="M2150.79,932.91c5.06-2.91,9.01-4.79,13.5-6.84,4.35-1.99,8.75-3.78,13.17-5.43,8.83-3.38,17.86-6.03,26.96-8.36,18.25-4.45,37.11-6.54,55.87-6.01,9.39-.07,18.72,1.51,27.97,2.65,9.11,2.26,18.35,3.76,27.02,7.29,17.81,5.59,33.76,15.29,48.87,25.36,3.81,2.54,4.84,7.69,2.3,11.5-2.37,3.56-7.02,4.69-10.73,2.76l-.69-.36c-14.78-7.79-29.79-15.05-45.9-18.34-7.83-2.38-16.08-2.78-24.05-4.03-8.15-.13-16.2-.76-24.29.14-16.12,1.15-32.07,4.52-47.33,9.9-7.6,2.79-15.09,5.81-22.27,9.42-3.61,1.77-7.14,3.64-10.56,5.63-3.31,1.89-7.01,4.22-9.36,5.93l-.19.14c-8.36,6.06-20.05,4.2-26.11-4.16-6.06-8.36-4.2-20.05,4.16-26.11.53-.38,1.09-.74,1.65-1.07Z" style="fill: #292828; stroke-width: 0px;"/>
  <path d="M1723.33,1841.75c-1.76,0-3.55-.27-5.32-.82-161.6-51.11-214.18-132.58-216.34-136.02-2.55-4.07-3.33-9-2.16-13.66s4.19-8.64,8.37-11.01c2.36-1.42,61.61-38.59,38.09-160.33-.21-1.1-.32-2.22-.32-3.34,0-9.73,7.89-17.65,17.62-17.65,8.82,0,16.13,6.46,17.42,14.91,20.65,107.76-16.57,162.17-39.48,184.44,20.43,22.95,75.55,73.68,187.43,109.06,9.28,2.93,14.42,12.84,11.49,22.12-2.37,7.51-9.32,12.31-16.79,12.31Z" style="fill: #292828; stroke-width: 0px;"/>
  <path d="M2515.02,1799.41c-7.17,0-13.9-4.4-16.53-11.52-3.37-9.13,1.29-19.26,10.42-22.63,168.04-62.07,249.14-142.32,272.48-168.64-75.31-129.35-55.18-266.75-54.26-272.69,1.49-9.62,10.49-16.21,20.11-14.72,9.61,1.49,16.2,10.48,14.73,20.09h0c-.21,1.37-20,138.59,55.91,259.57,3.82,6.09,3.56,13.89-.67,19.71-3.25,4.48-82.12,110.71-296.09,189.75-2.01.74-4.08,1.1-6.1,1.1Z" style="fill: #292828; stroke-width: 0px;"/>
  <path d="M2412.94,2165.65c-18.66,0-38.09-1.26-58.1-4.19-4.35-.63-8.72-1.36-13.14-2.16-7.34-1.31-13.05-7.09-14.28-14.45l-25.17-151.04c-1.6-9.6,4.88-18.68,14.48-20.27,9.6-1.59,18.68,4.89,20.28,14.49l23.1,138.59c94.1,13.69,174.72-12.79,214.44-29.8,8.94-3.84,19.3.32,23.13,9.26,3.83,8.95-.31,19.3-9.26,23.14-34.74,14.88-98.4,36.44-175.48,36.44Z" style="fill: #292828; stroke-width: 0px;"/>
  <path d="M2581.48,2130.59c-6.84,0-13.35-4-16.21-10.7-3.83-8.94.32-19.3,9.27-23.13,11.2-4.79,20.04-9.19,26.07-12.39-3.44-32.84-17.64-135.55-67.86-242-8.2-17.43-18.75-34.04-31.36-49.4-87.38-106.22-250.46-123.64-258.92-124.48-9.02-.77-16.12-8.34-16.12-17.56,0-9.73,7.87-17.62,17.6-17.62h.05c.57,0,1.14.03,1.71.09,18.96,1.84,187.55,21.28,282.91,137.19,14.47,17.62,26.58,36.71,36.02,56.75,63.64,134.92,71.82,260.45,72.13,265.73.39,6.44-2.78,12.58-8.25,16-.61.38-15.14,9.4-40.12,20.09-2.26.96-4.61,1.42-6.92,1.42Z" style="fill: #292828; stroke-width: 0px;"/>
  <path d="M2291.91,2446.56c-9.12,0-16.84-7.03-17.55-16.28-.74-9.71,6.52-18.17,16.22-18.92,76.24-5.84,137.85-27.19,183.11-63.45,107.51-85.87,90.48-231.24,90.3-232.7-.09-.73-.14-1.47-.14-2.21,0-9.73,7.89-17.64,17.62-17.64,9.18,0,16.72,7,17.55,15.96,1.43,12.11,17.18,167.86-103.31,264.11-50.87,40.76-118.99,64.67-202.43,71.07-.46.04-.91.05-1.36.05Z" style="fill: #292828; stroke-width: 0px;"/>
  <path d="M2272.19,2259.42c-7.71,0-14.79-5.1-16.97-12.89-2.61-9.37,2.87-19.09,12.24-21.7,47.87-13.35,66.5-29.48,72.3-35.81v-44.99c0-9.73,7.89-17.62,17.62-17.62s17.62,7.89,17.62,17.62v50.8c0,2.74-.64,5.43-1.86,7.88-2.84,5.67-20.81,35.04-96.21,56.06-1.58.45-3.17.65-4.74.65Z" style="fill: #292828; stroke-width: 0px;"/>
  <path d="M1715.48,1865.06c-1.64,0-3.3-.23-4.95-.71-9.34-2.73-14.7-12.51-11.97-21.85,2.53-8.68,5.34-17.01,8.34-24.74,41.72-108.59,127.37-149.72,130.99-151.42,8.81-4.13,19.3-.33,23.43,8.49,4.12,8.8.34,19.27-8.44,23.41h0c-.76.36-76.66,37.35-113.11,132.21-2.66,6.85-5.14,14.21-7.39,21.93-2.24,7.69-9.28,12.69-16.9,12.69Z" style="fill: #292828; stroke-width: 0px;"/>
  <path d="M1787.13,2875.58c-24.07,0-48.05-1.18-71.92-3.54-17.65,1.06-144.12,2.68-236.59-150.18-5.04-8.33-2.37-19.16,5.96-24.2,8.32-5.02,19.16-2.37,24.2,5.96,86.18,142.47,203.89,133.31,205.07,133.2,1.13-.1,2.27-.11,3.39.01,106.77,10.81,216.19-3.32,325.24-41.92,91.31-32.28,148.38-70.55,148.95-70.93,2.92-1.97,6.36-3.03,9.88-3.03,16.24,0,59.4-1.48,109.32-15.18,36.13-9.84,67.08-23.68,92.03-41.15,7.98-5.57,18.96-3.64,24.54,4.33,5.58,7.97,3.64,18.96-4.33,24.54-28.29,19.8-62.93,35.37-102.95,46.26-49.28,13.52-92.66,16.04-113.3,16.38-15.73,10.03-70.46,43.03-152.39,71.99-89.17,31.57-178.73,47.45-267.1,47.45Z" style="fill: #292828; stroke-width: 0px;"/>
  <path d="M2412.83,2696.63c-5.57,0-11.05-2.64-14.47-7.56-5.56-7.99-3.6-18.97,4.39-24.53,25.68-17.88,44.9-39.62,57.12-64.61,49.04-100.42,8.46-231.61,8.05-232.92-2.94-9.27,2.19-19.18,11.47-22.12,9.27-2.94,19.17,2.17,22.12,11.44,1.88,5.9,45.36,145.78-9.97,259.08-14.9,30.45-37.99,56.72-68.65,78.06-3.07,2.14-6.58,3.16-10.05,3.16Z" style="fill: #292828; stroke-width: 0px;"/>
  <path d="M1701.49,2793.95c-1.08,0-2.17-.1-3.27-.31-86.69-16.29-156.13-37.58-212.28-65.08-89.11-43.55-142.19-102.47-157.75-175.1-4.07-18.92-3.7-37.03,1.09-53.84,2.67-9.36,12.42-14.75,21.78-12.11,9.36,2.67,14.78,12.42,12.11,21.78-3.19,11.18-3.37,23.55-.52,36.77,13.18,61.53,59.88,112.28,138.78,150.85,53.27,26.09,119.76,46.4,203.3,62.09,9.57,1.8,15.86,11.01,14.06,20.57-1.59,8.47-8.99,14.37-17.3,14.37Z" style="fill: #292828; stroke-width: 0px;"/>
  <path d="M1933.59,2635.36c-1.18,0-2.38-.12-3.58-.37-.74-.15-18.44-3.85-45.94-13.16-48.74-16.43-120.56-47.81-185.84-104.03-7.37-6.35-8.21-17.48-1.85-24.85,6.34-7.37,17.47-8.22,24.85-1.86,60.96,52.5,128.34,81.91,174.12,97.34,25.27,8.55,41.64,12,41.8,12.03,9.52,1.98,15.64,11.31,13.67,20.83-1.72,8.32-9.05,14.05-17.23,14.05Z" style="fill: #292828; stroke-width: 0px;"/>
  <path d="M1701.46,2793.95c-7.67,0-14.72-5.04-16.93-12.78-2.68-9.35,2.74-19.11,12.1-21.78,92.06-26.32,141.87-49.47,193.65-117.11,8.95-11.75,19.5-23.91,31.34-36.14,63.07-65.36,143.8-114.67,147.2-116.73,8.32-5.04,19.15-2.39,24.2,5.92,5.05,8.31,2.4,19.16-5.92,24.21-.8.48-80.31,49.09-140.15,111.1-10.89,11.26-20.53,22.36-28.67,33.04-62.77,82-127.45,105.44-211.96,129.6-1.62.46-3.25.68-4.85.68Z" style="fill: #292828; stroke-width: 0px;"/>
  <path d="M2140.93,2859.67c-58.65,0-100.94-32.33-103.43-34.27-7.67-6-9.02-17.07-3.02-24.74,5.98-7.66,17.02-9.02,24.69-3.06,2.89,2.22,69.87,52.61,146.4,8.97,57.08-32.55,79.87-63.46,88.38-78.99,3.3-6.03,4.37-9.57,4.38-9.6,2.75-9.23,12.46-14.68,21.7-12.06,9.27,2.61,14.76,12.05,12.29,21.36-.31,1.17-2.13,7.5-7.47,17.24-10.29,18.78-37.21,55.82-101.82,92.67-29.12,16.61-57.1,22.48-82.1,22.48Z" style="fill: #292828; stroke-width: 0px;"/>
  <path d="M1889.71,2622.77c-7.55,0-14.54-4.89-16.85-12.49-13.8-45.31-42.57-96.67-42.85-97.18-4.77-8.48-1.77-19.22,6.71-24,8.48-4.77,19.22-1.77,24,6.7,1.25,2.23,30.92,55.15,45.86,104.21,2.84,9.31-2.41,19.16-11.72,21.99-1.71.52-3.44.77-5.14.77Z" style="fill: #292828; stroke-width: 0px;"/>
  <path d="M2294.35,2522.07h-1031.95c-9.16,0-16.79-7.01-17.56-16.14l-55.43-657.03c-.42-4.91,1.25-9.77,4.58-13.41,3.34-3.63,8.04-5.7,12.97-5.7h1031.95c9.32,0,17.03,7.26,17.59,16.56l.05.86,51.32,607.91h0s4.03,47.84,4.03,47.84c.42,4.91-1.25,9.77-4.58,13.4-3.34,3.63-8.04,5.7-12.97,5.7ZM1278.6,2486.84h996.59l-52.48-621.78h-996.56l52.46,621.78Z" style="fill: #292828; stroke-width: 0px;"/>
  <path d="M2061.58,1805.12c-80.64,0-121.03-66.26-131.68-105.64-2.54-9.4,3.02-19.07,12.41-21.61,9.37-2.52,19.03,2.99,21.6,12.36,1.09,3.94,27.79,96.06,123.19,76.99,100.58-20.12,125.98-112.79,127.01-116.73,2.46-9.39,12.07-15.05,21.47-12.62,9.4,2.44,15.07,11.99,12.66,21.4-1.23,4.8-31.5,117.96-154.23,142.51-11.46,2.29-22.27,3.34-32.42,3.34Z" style="fill: #292828; stroke-width: 0px;"/>
  <path d="M2412.77,2696.64c-4.16,0-8.34-1.46-11.68-4.44-5.66-5.04-7.33-12.88-4.74-19.54,2.57-8.17,14.85-51.59-.08-91.55-28.05-75.17-111.38-107.7-112.22-108.02-2.32-.89-4.42-2.25-6.18-4-6.88-6.88-6.9-18.06-.02-24.94,5.38-5.38,13.35-6.56,19.85-3.55,11.41,4.58,99.54,42.33,131.58,128.19,19.4,51.89,3.66,105.43.31,115.63-.75,2.3-2,4.5-3.6,6.31-3.49,3.92-8.35,5.93-13.22,5.93ZM2412.81,2679h.06-.06Z" style="fill: #292828; stroke-width: 0px;"/>
  <path d="M1504.52,1372.53c-.48,0-.96-.02-1.43-.06-85.59-7-152.63-81.36-152.63-169.31s60.75-155.73,141.42-167.98c5.83-1.12,11.95.8,16.06,5.05,3.32,3.44,5.1,8.08,4.93,12.86-.6,17.01-1.34,44.14-1.5,76.75-.05,10.39-.05,21.34.05,32.68v.04c.49,72.23,4.06,136.23,10.6,190.22.63,5.26-1.12,10.52-4.79,14.33-3.34,3.47-7.93,5.41-12.7,5.41ZM1476.95,1074.83c-53.25,17.43-91.25,69.23-91.25,128.33,0,62.12,41.92,115.67,98.74,130.52-5.05-50.06-7.83-107.4-8.27-170.85-.1-11.51-.1-22.61-.05-33.16.1-20.89.44-39.57.83-54.84Z" style="fill: #292828; stroke-width: 0px;"/>
  <g>
    <path d="M2628.14,1265.98c.68-15.23,3.04-28.93,7-43,4.04-13.83,9.76-27.6,19.06-39.4,9.12-11.75,22.5-21.08,37.12-23.64,14.52-2.89,28.88-.45,41.98,3.66,1.18.37,1.84,1.63,1.47,2.81-.34,1.09-1.44,1.73-2.53,1.53h-.04c-13.06-2.37-26.59-2.7-38.42,1.33-11.95,3.77-21.2,12.38-27.42,22.8-6.3,10.48-9.75,22.81-11.71,35.31-1.9,12.39-2.36,25.84-1.35,37.7l.04.41c.59,6.94-4.56,13.06-11.51,13.65-6.95.59-13.06-4.56-13.65-11.51-.04-.52-.05-1.12-.03-1.64Z" style="fill: #292828; stroke-width: 0px;"/>
    <path d="M2743.83,1217.77c-5.7-5.92-12.86-10.41-20.29-13.07-7.45-2.72-15.23-3.55-22.72-2.89-7.53.86-14.73,3.23-21.54,6.46-3.4,1.63-6.65,3.8-9.91,5.59l-9.31,6.81-.77.56c-5.67,4.15-13.63,2.91-17.77-2.76-4.15-5.67-2.91-13.63,2.76-17.77.79-.58,1.7-1.08,2.57-1.45l12.81-5.4c4.55-1.33,8.89-2.9,13.49-3.9,9.2-1.98,18.73-2.77,28.08-1.61,18.81,2.56,35.27,13.47,44.1,28.43.25.43.11.98-.32,1.23-.37.21-.82.14-1.11-.15l-.07-.07Z" style="fill: #292828; stroke-width: 0px;"/>
  </g>
</svg>